<?xml version="1.0" encoding="utf-8"?>
<!-- Generator: Adobe Illustrator 25.3.0, SVG Export Plug-In . SVG Version: 6.00 Build 0)  -->
<svg version="1.1" id="Layer_1" xmlns="http://www.w3.org/2000/svg" xmlns:xlink="http://www.w3.org/1999/xlink" x="0px" y="0px"
	 viewBox="0 0 512 512" style="enable-background:new 0 0 512 512;" xml:space="preserve">
<style type="text/css">
	.st0{fill-rule:evenodd;clip-rule:evenodd;fill:#0466C8;}
</style>
<path class="st0" d="M85.3,74.7C55.9,74.7,32,98.5,32,128v213.3c0,29.5,23.9,53.3,53.3,53.3h132.1l-21.3,42.7h-46.7
	c-5.9,0-10.7,4.8-10.7,10.7s4.8,10.7,10.7,10.7h53.1c0.1,0,0.3,0,0.4,0h106.2c0.1,0,0.3,0,0.4,0h53.1c5.9,0,10.7-4.8,10.7-10.7
	s-4.8-10.7-10.7-10.7h-46.7l-21.3-42.7h132.1c29.5,0,53.3-23.9,53.3-53.3V128c0-29.5-23.9-53.3-53.3-53.3H85.3z M292.1,437.3
	l-21.3-42.7h-29.5l-21.3,42.7H292.1z M277.1,373.3c0.1,0,0.3,0,0.4,0h149.1c17.7,0,32-14.3,32-32V128c0-17.7-14.3-32-32-32H85.3
	c-17.7,0-32,14.3-32,32v213.3c0,17.7,14.3,32,32,32h149.1c0.1,0,0.3,0,0.4,0H277.1z"/>
</svg>
