<?xml version="1.0" encoding="utf-8"?>
<!-- Generator: Adobe Illustrator 25.3.0, SVG Export Plug-In . SVG Version: 6.00 Build 0)  -->
<svg version="1.1" id="Layer_1" xmlns="http://www.w3.org/2000/svg" xmlns:xlink="http://www.w3.org/1999/xlink" x="0px" y="0px"
	 viewBox="0 0 512 512" style="enable-background:new 0 0 512 512;" xml:space="preserve">
<style type="text/css">
	.st0{fill-rule:evenodd;clip-rule:evenodd;fill:#0466C8;}
</style>
<g>
	<path class="st0" d="M117.3,85.3c0-29.5,23.9-53.3,53.3-53.3h170.7c29.5,0,53.3,23.9,53.3,53.3v341.3c0,29.5-23.9,53.3-53.3,53.3
		H170.7c-29.5,0-53.3-23.9-53.3-53.3V85.3z M170.7,53.3c-17.7,0-32,14.3-32,32v341.3c0,17.7,14.3,32,32,32h170.7
		c17.7,0,32-14.3,32-32V85.3c0-17.7-14.3-32-32-32H170.7z"/>
	<path class="st0" d="M181.3,42.7c0-5.9,4.8-10.7,10.7-10.7h128c5.9,0,10.7,4.8,10.7,10.7V64c0,17.7-14.3,32-32,32h-85.3
		c-17.7,0-32-14.3-32-32V42.7z M202.7,53.3V64c0,5.9,4.8,10.7,10.7,10.7h85.3c5.9,0,10.7-4.8,10.7-10.7V53.3H202.7z"/>
</g>
</svg>
